<svg xmlns="http://www.w3.org/2000/svg" xmlns:xlink="http://www.w3.org/1999/xlink" width="50" height="50" viewBox="0 0 50 50">
  <defs>
    <linearGradient id="linear-gradient" x1="0.5" x2="0.5" y2="1" gradientUnits="objectBoundingBox">
      <stop offset="0" stop-color="#b8d5ff"/>
      <stop offset="1" stop-color="#dbeaff"/>
    </linearGradient>
  </defs>
  <g id="Algo_icon" transform="translate(-759 -290)">
    <rect id="Rectangle_11500" data-name="Rectangle 11500" width="50" height="50" rx="25" transform="translate(759 290)" fill="url(#linear-gradient)"/>
    <g id="bot" transform="translate(767 298)">
      <path id="Rectangle_11501" data-name="Rectangle 11501" d="M12.143,0h1.714A12.143,12.143,0,0,1,26,12.143v0A4.857,4.857,0,0,1,21.143,17H4.857A4.857,4.857,0,0,1,0,12.143v0A12.143,12.143,0,0,1,12.143,0Z" transform="translate(4.5 10.071)" fill="#fff"/>
      <path id="Path_19957" data-name="Path 19957" d="M13.625,18.178a1.661,1.661,0,1,0,1.661,1.661A1.663,1.663,0,0,0,13.625,18.178Zm0,2.214a.554.554,0,1,1,.554-.554A.554.554,0,0,1,13.625,20.393Zm7.75-2.214a1.661,1.661,0,1,0,1.661,1.661A1.663,1.663,0,0,0,21.375,18.178Zm0,2.214a.554.554,0,1,1,.554-.554A.555.555,0,0,1,21.375,20.393Zm1.107-4.429H12.518a3.875,3.875,0,0,0,0,7.75h9.964a3.875,3.875,0,0,0,0-7.75Zm0,6.643H12.518a2.768,2.768,0,0,1,0-5.536h9.964a2.768,2.768,0,0,1,0,5.536Zm9.411-4.327V9.219a1.661,1.661,0,1,0-1.107,0V18.28a1.66,1.66,0,0,0-.6.37,13.287,13.287,0,0,0-25.367,0,1.66,1.66,0,0,0-.6-.37V9.219a1.661,1.661,0,1,0-1.107,0V18.28A1.658,1.658,0,0,0,2,19.839v4.429a1.654,1.654,0,0,0,2.947,1.038,5.517,5.517,0,0,0,4.8,2.837h15.5a5.517,5.517,0,0,0,4.8-2.837A1.654,1.654,0,0,0,33,24.268V19.839a1.658,1.658,0,0,0-1.107-1.559ZM31.339,7.107a.554.554,0,1,1-.554.554A.555.555,0,0,1,31.339,7.107Zm-27.678,0a.554.554,0,1,1-.554.554A.554.554,0,0,1,3.661,7.107Zm.554,17.16a.554.554,0,0,1-1.107,0V19.839a.554.554,0,1,1,1.107,0ZM25.25,27.035H9.75a4.433,4.433,0,0,1-4.429-4.429,12.178,12.178,0,1,1,24.357,0A4.433,4.433,0,0,1,25.25,27.035Zm6.643-2.768a.554.554,0,0,1-1.107,0V19.839a.554.554,0,1,1,1.107,0Z"/>
    </g>
  </g>
</svg>
