<svg xmlns="http://www.w3.org/2000/svg" xmlns:xlink="http://www.w3.org/1999/xlink" width="50" height="50" viewBox="0 0 50 50">
  <defs>
    <linearGradient id="linear-gradient" x1="0.5" x2="0.5" y2="1" gradientUnits="objectBoundingBox">
      <stop offset="0" stop-color="#fbc484"/>
      <stop offset="1" stop-color="#ffbc82"/>
    </linearGradient>
  </defs>
  <g id="FPI_icon" transform="translate(-1219 -305)">
    <rect id="Rectangle_11512" data-name="Rectangle 11512" width="50" height="50" rx="25" transform="translate(1219 305)" fill="url(#linear-gradient)"/>
    <path id="Path_19965" data-name="Path 19965" d="M1242.166,324.531l-3.773,3.355-2.677,3.69-1.516,3.891-.419,2.449.419,2.315,1.193,1.073,1.774.671,3.031.369,10.512-.369,1.677-.671,1.161-1.51.451-2.113-.742-3.321-1.774-3.254-2.322-3.22-2.677-2.617-.709-.436Z" transform="translate(-0.281 -0.656)" fill="#fff"/>
    <path id="Path_19966" data-name="Path 19966" d="M1246.844,319.219l1.281.531.219.625-.531,1.156-.969.844s-2.031.875-1.844.5.281-1.562.375-1.75S1246.844,319.219,1246.844,319.219Z" fill="#fff"/>
    <rect id="Rectangle_11514" data-name="Rectangle 11514" width="7" height="7" rx="2" transform="translate(1240 317)" fill="#fff"/>
    <path id="Path_19967" data-name="Path 19967" d="M1240.125,322.281l-1.375-2.125.156-.5.906-.344.969-.219a1.438,1.438,0,0,1,1.219.781,3.056,3.056,0,0,1,.375,1.281c-.031.188-.156.594-.375.688S1240.125,322.281,1240.125,322.281Z" fill="#fff"/>
    <g id="money-bag_1_" data-name="money-bag (1)" transform="translate(1224.653 315.76)">
      <path id="Path_19959" data-name="Path 19959" d="M33.873,8.862a.433.433,0,0,1-.261-.091.428.428,0,0,1-.074-.6l2.742-3.5A.5.5,0,0,0,36,4.081l-1.612-.643a.428.428,0,0,1-.246-.53l.085-.252A.626.626,0,0,0,33.6,2.09H29.61a.623.623,0,0,0-.62.567l.088.235a.422.422,0,0,1-.238.547l-1.62.651a.5.5,0,0,0-.283.592l2.742,3.5a.428.428,0,0,1-.074.6.422.422,0,0,1-.595-.074L26.217,5.138a.459.459,0,0,1-.059-.1,1.345,1.345,0,0,1,.736-1.742l1.241-.5a.376.376,0,0,1,0-.079A1.479,1.479,0,0,1,29.61,1.24H33.6a1.476,1.476,0,0,1,1.476,1.476.749.749,0,0,1,0,.079l1.238.5a1.345,1.345,0,0,1,.745,1.745.371.371,0,0,1-.059.1L34.21,8.7A.428.428,0,0,1,33.873,8.862Z" transform="translate(-12.697)"/>
      <path id="Path_19960" data-name="Path 19960" d="M23.68,43.466H14.14a6.723,6.723,0,0,1-4.631-1.9,5.237,5.237,0,0,1-1.1-4.305C9.2,30.92,15.466,25.8,16.463,25.382a14.285,14.285,0,0,1,4.909,0c.989.422,7.251,5.535,8.044,11.874a5.237,5.237,0,0,1-1.1,4.305A6.757,6.757,0,0,1,23.68,43.466ZM18.91,26.017a9.531,9.531,0,0,0-2.122.147c-.5.215-6.764,5.031-7.537,11.2A4.45,4.45,0,0,0,10.141,41a5.971,5.971,0,0,0,4,1.62h9.537a5.98,5.98,0,0,0,4-1.62,4.45,4.45,0,0,0,.889-3.634c-.773-6.169-7.033-10.982-7.537-11.2A9.465,9.465,0,0,0,18.91,26.017Z" transform="translate(0 -17.152)"/>
      <path id="Path_19961" data-name="Path 19961" d="M51.016,9a.425.425,0,0,1-.374-.626l1.11-2.056a.425.425,0,0,1,.748.405L51.39,8.775A.422.422,0,0,1,51.016,9Z" transform="translate(-30.279 -3.479)"/>
      <path id="Path_19962" data-name="Path 19962" d="M35.5,9a.422.422,0,0,1-.374-.224L34.02,6.721a.425.425,0,1,1,.748-.405l1.11,2.056A.425.425,0,0,1,35.5,9Z" transform="translate(-18.364 -3.479)"/>
      <path id="Path_19963" data-name="Path 19963" d="M39.983,52.322H38.811a1.884,1.884,0,0,1-1.881-1.881v-.47a.425.425,0,1,1,.85,0v.462a1.031,1.031,0,0,0,1.031,1.04h1.173a1.031,1.031,0,0,0,1.028-1.031v-1a.9.9,0,0,0-.586-.765l-2.4-.923a1.654,1.654,0,0,1-1.1-1.532v-.977a1.884,1.884,0,0,1,1.881-1.881h1.17a1.884,1.884,0,0,1,1.881,1.881v.465a.425.425,0,0,1-.85,0v-.465a1.031,1.031,0,0,0-1.031-1.031h-1.17a1.031,1.031,0,0,0-1.031,1.031v.991a.821.821,0,0,0,.547.739l2.416.929a1.739,1.739,0,0,1,1.133,1.552v.994a1.881,1.881,0,0,1-1.892,1.875Z" transform="translate(-20.487 -30.189)"/>
      <path id="Path_19964" data-name="Path 19964" d="M44.925,50.367a.425.425,0,0,1-.425-.425V39.195a.425.425,0,0,1,.85,0V49.942A.425.425,0,0,1,44.925,50.367Z" transform="translate(-25.913 -26.899)"/>
    </g>
  </g>
</svg>
