<svg xmlns="http://www.w3.org/2000/svg" width="35.436" height="34.162" viewBox="0 0 35.436 34.162">
  <g id="_5keyStep_3" data-name="5keyStep_3" transform="translate(-0.9 -2)">
    <g id="XMLID_1072_" transform="translate(1 2)">
      <g id="XMLID_1097_" transform="translate(2.349 8.222)">
        <g id="Group_9068" data-name="Group 9068">
          <path id="Path_20844" data-name="Path 20844" d="M32.951,30.142a.587.587,0,0,1-.587-.587V10.762a.588.588,0,0,0-.587-.587H4.762a.588.588,0,0,0-.587.587V29.555a.587.587,0,1,1-1.175,0V10.762A1.764,1.764,0,0,1,4.762,9H31.776a1.764,1.764,0,0,1,1.762,1.762V29.555A.587.587,0,0,1,32.951,30.142Z" transform="translate(-3 -9)" stroke="#000" stroke-width="0.2"/>
        </g>
      </g>
      <g id="XMLID_1096_" transform="translate(7.92 15.567)">
        <g id="Group_9069" data-name="Group 9069" transform="translate(0 0)">
          <path id="Path_20845" data-name="Path 20845" d="M13.931,24.624a.69.69,0,0,1-.456-.172L9.237,20.745a.691.691,0,0,1,0-1.042L13.475,16a.693.693,0,0,1,.912,1.043l-3.641,3.185,3.641,3.187a.692.692,0,0,1-.456,1.214Z" transform="translate(-9 -15.824)" fill="#ea7613" stroke="#ea7613" stroke-width="0.2"/>
        </g>
      </g>
      <g id="XMLID_1095_" transform="translate(15.034 13.6)">
        <g id="Group_9070" data-name="Group 9070" transform="translate(0 0)">
          <path id="Path_20846" data-name="Path 20846" d="M14.828,27.14a.671.671,0,0,1-.219-.036.692.692,0,0,1-.438-.876l3.782-11.351a.693.693,0,0,1,1.315.438L15.486,26.666A.7.7,0,0,1,14.828,27.14Z" transform="translate(-14.135 -14.404)" fill="#ea7613" stroke="#ea7613" stroke-width="0.2"/>
        </g>
      </g>
      <g id="XMLID_1088_" transform="translate(21.692 15.565)">
        <g id="Group_9071" data-name="Group 9071" transform="translate(0 0)">
          <path id="Path_20847" data-name="Path 20847" d="M19.634,24.625a.693.693,0,0,1-.456-1.215l3.641-3.185-3.641-3.187a.693.693,0,0,1,.912-1.043L24.328,19.7a.693.693,0,0,1,0,1.043L20.09,24.453a.678.678,0,0,1-.456.172Z" transform="translate(-18.941 -15.823)" fill="#ea7613" stroke="#ea7613" stroke-width="0.2"/>
        </g>
      </g>
      <g id="XMLID_1068_" transform="translate(0 30.538)">
        <g id="Group_9072" data-name="Group 9072">
          <path id="Path_20848" data-name="Path 20848" d="M33.3,31.524H3.936A2.94,2.94,0,0,1,1,28.587.587.587,0,0,1,1.587,28h12.92a.587.587,0,1,1,0,1.175H2.276a1.764,1.764,0,0,0,1.661,1.175H33.3a1.764,1.764,0,0,0,1.661-1.175H22.729a.587.587,0,1,1,0-1.175h12.92a.587.587,0,0,1,.587.587A2.94,2.94,0,0,1,33.3,31.524Z" transform="translate(-1 -28)" stroke="#000" stroke-width="0.2"/>
        </g>
      </g>
      <g id="XMLID_956_" transform="translate(9.984)">
        <g id="XMLID_1154_">
          <g id="Group_9073" data-name="Group 9073">
            <path id="Path_20849" data-name="Path 20849" d="M24.182,11.4a.587.587,0,0,1-.587-.587V9.2l-1.2-.263a.589.589,0,0,1-.445-.437,5.21,5.21,0,0,0-.612-1.478.585.585,0,0,1,.008-.62l.661-1.035L21.4,4.758l-1.035.662a.585.585,0,0,1-.62.007,4.873,4.873,0,0,0-1.467-.6.589.589,0,0,1-.448-.448l-.264-1.206H16.7l-.264,1.206a.587.587,0,0,1-.448.448,4.873,4.873,0,0,0-1.467.6.587.587,0,0,1-.62-.007L12.87,4.758l-.612.612L12.919,6.4a.587.587,0,0,1,.008.62,4.9,4.9,0,0,0-.6,1.468.586.586,0,0,1-.449.446L10.212,9.3a.587.587,0,0,1-.249-1.146l1.314-.288a6.033,6.033,0,0,1,.464-1.129l-.726-1.135a.586.586,0,0,1,.079-.732l1.28-1.28a.588.588,0,0,1,.732-.08l1.135.726a5.991,5.991,0,0,1,1.13-.463l.288-1.315A.585.585,0,0,1,16.23,2h1.808a.587.587,0,0,1,.573.462L18.9,3.777a6.023,6.023,0,0,1,1.13.463l1.135-.726a.588.588,0,0,1,.732.08l1.28,1.28a.586.586,0,0,1,.079.732L22.528,6.74A6.262,6.262,0,0,1,23,7.869l1.31.288a.586.586,0,0,1,.463.573v2.079a.587.587,0,0,1-.587.587Z" transform="translate(-9.5 -2)"/>
          </g>
        </g>
        <g id="XMLID_2396_" transform="translate(4.111 4.111)">
          <g id="Group_9074" data-name="Group 9074">
            <path id="Path_20850" data-name="Path 20850" d="M13.819,10.756a.586.586,0,0,1-.54-.358,3.523,3.523,0,1,1,6.493,0,.587.587,0,1,1-1.083-.456,2.349,2.349,0,1,0-4.329,0,.588.588,0,0,1-.54.816Z" transform="translate(-13 -5.5)"/>
          </g>
        </g>
      </g>
    </g>
    <g id="XMLID_3413_" transform="translate(24.491 28.956)">
      <g id="XMLID_3420_">
        <g id="Group_9075" data-name="Group 9075">
          <path id="Path_20851" data-name="Path 20851" d="M21.587,26.183A.587.587,0,0,1,21,25.6a.641.641,0,0,1,.587-.646.54.54,0,0,1,.587.529V25.6a.587.587,0,0,1-.587.587Z" transform="translate(-21 -24.95)" fill="#ea7613"/>
        </g>
      </g>
      <g id="XMLID_3419_" transform="translate(2.349)">
        <g id="Group_9076" data-name="Group 9076">
          <path id="Path_20852" data-name="Path 20852" d="M23.587,26.183A.587.587,0,0,1,23,25.6a.641.641,0,0,1,.587-.646.54.54,0,0,1,.587.529V25.6a.587.587,0,0,1-.587.587Z" transform="translate(-23 -24.95)" fill="#ea7613"/>
        </g>
      </g>
      <g id="XMLID_3414_" transform="translate(4.698)">
        <g id="Group_9077" data-name="Group 9077">
          <path id="Path_20853" data-name="Path 20853" d="M25.587,26.183A.587.587,0,0,1,25,25.6a.641.641,0,0,1,.587-.646.54.54,0,0,1,.587.529V25.6a.587.587,0,0,1-.587.587Z" transform="translate(-25 -24.95)" fill="#ea7613"/>
        </g>
      </g>
    </g>
  </g>
</svg>
