<svg xmlns="http://www.w3.org/2000/svg" width="38.492" height="38.15" viewBox="0 0 38.492 38.15">
  <g id="_5keyStep_2" data-name="5keyStep_2" transform="translate(-2.808 -2.969)">
    <path id="Path_20842" data-name="Path 20842" d="M10.71,9.3a3.2,3.2,0,1,0-1.587-.067v5.723a.793.793,0,0,0,.793.793h4.117V18.12H9.109a3.2,3.2,0,1,0,0,1.587h4.922v3.345A1.851,1.851,0,0,0,15.886,24.9h1.377a.793.793,0,1,0,0-1.587H15.886a.264.264,0,0,1-.264-.264V14.188a.264.264,0,0,1,.264-.264H28.464a.264.264,0,0,1,.264.264v8.864a.264.264,0,0,1-.264.264H27.427a.793.793,0,0,0,0,1.587h1.038a1.851,1.851,0,0,0,1.851-1.851V19.707H35a3.2,3.2,0,1,0,0-1.587H30.315V15.753h3.847a.793.793,0,0,0,.793-.793V9.21a3.2,3.2,0,1,0-1.587.11v4.846H30.315a1.851,1.851,0,0,0-1.851-1.829H27.449V10.651a5.274,5.274,0,0,0-10.549,0v1.685H15.886a1.851,1.851,0,0,0-1.851,1.829H10.71Zm-.663-1.518A1.614,1.614,0,1,0,8.434,6.171,1.614,1.614,0,0,0,10.048,7.785Zm15.815,4.552V10.651a3.687,3.687,0,0,0-7.375,0v1.685ZM7.623,18.921a1.614,1.614,0,1,1-1.614-1.614A1.614,1.614,0,0,1,7.623,18.921Zm28.862,0A1.614,1.614,0,1,0,38.1,17.307,1.614,1.614,0,0,0,36.485,18.921ZM33.948,7.785a1.614,1.614,0,1,1,1.614-1.614A1.614,1.614,0,0,1,33.948,7.785Z" transform="translate(0 0)" fill-rule="evenodd"/>
    <path id="Path_20843" data-name="Path 20843" d="M24,20.88a2.678,2.678,0,1,0-5.357,0V36.27a3.967,3.967,0,0,0,3.967,3.967h8.713a3.967,3.967,0,0,0,3.967-3.967V31.326a2.68,2.68,0,0,0-3.77-2.447,2.679,2.679,0,0,0-3.9-2.362A2.681,2.681,0,0,0,24,24.963Zm-2.678-1.091a1.091,1.091,0,0,1,1.091,1.091v6.508A.793.793,0,0,0,24,27.4a1.091,1.091,0,0,1,2.183.013v1.225a.793.793,0,0,0,1.579.11,1.092,1.092,0,0,1,2.172.154V30.83a.793.793,0,0,0,.793.793H30.8a.793.793,0,0,0,.766-.585,1.092,1.092,0,0,1,2.145.288V36.27a2.38,2.38,0,0,1-2.38,2.38H22.615a2.38,2.38,0,0,1-2.38-2.38V20.88a1.091,1.091,0,0,1,1.091-1.091Z" transform="translate(0.918 0.882)" fill="#ea7613" fill-rule="evenodd"/>
  </g>
</svg>
