<svg xmlns="http://www.w3.org/2000/svg" width="41.247" height="41.244" viewBox="0 0 41.247 41.244">
  <g id="_5keyStep_5" data-name="5keyStep_5" transform="translate(-4.022 -4.022)">
    <path id="Path_21139" data-name="Path 21139" d="M41.52,20.865a1.784,1.784,0,0,1-1.715-1.2c-.321-1.419-1.893-2.943-.548-4.281A3.781,3.781,0,0,0,33.9,10.046c-1.326,1.329-2.858-.242-4.27-.559a1.785,1.785,0,0,1-1.2-1.716,3.781,3.781,0,1,0-7.563.075,1.7,1.7,0,0,1-1.132,1.618c-1.45.312-2.99,1.93-4.351.571a3.781,3.781,0,0,0-5.336,5.357c1.33,1.327-.241,2.856-.558,4.27a1.785,1.785,0,0,1-1.716,1.2,3.781,3.781,0,1,0,.075,7.562c1.852.01,1.765,2.215,2.555,3.4a1.794,1.794,0,0,1-.366,2.083,3.781,3.781,0,1,0,5.347,5.346c1.322-1.338,2.87.227,4.279.548a1.786,1.786,0,0,1,1.2,1.717,3.782,3.782,0,1,0,7.563-.075,1.7,1.7,0,0,1,1.132-1.618c1.45-.312,2.989-1.931,4.351-.571A3.781,3.781,0,0,0,39.247,33.9a1.789,1.789,0,0,1-.355-2.072c.771-1.214.751-3.409,2.629-3.4a3.781,3.781,0,0,0,0-7.562Zm0,6.086A3.256,3.256,0,0,0,38.4,29.168a14.383,14.383,0,0,1-.827,1.993,3.264,3.264,0,0,0,.636,3.792A2.305,2.305,0,1,1,34.943,38.2a3.26,3.26,0,0,0-3.782-.625,14.358,14.358,0,0,1-2.056.849,3.168,3.168,0,0,0-2.153,3.085,2.306,2.306,0,1,1-4.612.012A3.259,3.259,0,0,0,20.122,38.4c-1.17-.3-2.207-1.178-3.438-1.168a3.322,3.322,0,0,0-2.345.978,2.305,2.305,0,1,1-3.249-3.271,3.259,3.259,0,0,0,.626-3.781,14.289,14.289,0,0,1-.848-2.057,3.17,3.17,0,0,0-3.085-2.153,2.306,2.306,0,1,1-.01-4.611,3.256,3.256,0,0,0,3.116-2.217,14.383,14.383,0,0,1,.827-1.993,3.264,3.264,0,0,0-.637-3.792A2.305,2.305,0,1,1,14.35,11.09a3.26,3.26,0,0,0,3.782.625,14.356,14.356,0,0,1,2.056-.849A3.168,3.168,0,0,0,22.34,7.782a2.306,2.306,0,0,1,4.612-.01,3.258,3.258,0,0,0,2.216,3.117,14.273,14.273,0,0,1,1.992.827,3.263,3.263,0,0,0,3.792-.636A2.305,2.305,0,1,1,38.2,14.35a3.259,3.259,0,0,0-.626,3.781,14.329,14.329,0,0,1,.827,1.992,3.257,3.257,0,0,0,3.117,2.218,2.306,2.306,0,1,1,0,4.611Z" transform="translate(0 0)"/>
    <path id="Path_21140" data-name="Path 21140" d="M16.988,28.075a11.066,11.066,0,1,0,22.132,0c-.605-14.677-21.525-14.681-22.132,0Zm1.475,0a9.591,9.591,0,1,1,19.181,0c-.525,12.72-18.654,12.723-19.181,0Z" transform="translate(-3.408 -3.428)" fill="#ea7613"/>
    <path id="Path_21141" data-name="Path 21141" d="M34.577,26.513c-.036.029-6.239,6.239-6.4,6.4.114.125-2.845-2.845-2.922-2.918a.738.738,0,0,0-1.079,1c.041.054,3.36,3.352,3.476,3.479a.78.78,0,0,0,.523.217.738.738,0,0,0,.489-.185c.034-.027,6.745-6.747,6.916-6.915a.738.738,0,0,0-1-1.08Z" transform="translate(-5.252 -5.866)" fill="#ea7613"/>
  </g>
</svg>
