<svg xmlns="http://www.w3.org/2000/svg" width="39.038" height="40.6" viewBox="0 0 39.038 40.6">
  <g id="_5keyStep_1" data-name="5keyStep_1" transform="translate(-9)">
    <path id="Path_20669" data-name="Path 20669" d="M125.789,105.714a11.507,11.507,0,0,0-15.7,0,10.563,10.563,0,0,0-3.174,7.639,10.791,10.791,0,0,0,3.816,8.189,7,7,0,0,1,2.34,4.372,2.193,2.193,0,0,0-1.09,1.89v.658a2.2,2.2,0,0,0,1.6,2.109,2.166,2.166,0,0,0-.192.893v.658a2.207,2.207,0,0,0,2.214,2.2h4.672a2.207,2.207,0,0,0,2.214-2.2v-.658a2.166,2.166,0,0,0-.192-.893,2.2,2.2,0,0,0,1.6-2.109V127.8a2.193,2.193,0,0,0-1.09-1.89,7,7,0,0,1,2.34-4.372,10.791,10.791,0,0,0,3.816-8.189,10.563,10.563,0,0,0-3.174-7.639ZM121.1,132.121a.818.818,0,0,1-.826.807H115.6a.818.818,0,0,1-.826-.807v-.658a.818.818,0,0,1,.826-.807h4.672a.818.818,0,0,1,.826.807v.658Zm1.409-3.66a.818.818,0,0,1-.826.807h-7.49a.818.818,0,0,1-.826-.807V127.8a.818.818,0,0,1,.826-.807h7.49a.818.818,0,0,1,.826.807Zm-6.723-11.56h-1.377a.989.989,0,1,1,0-1.978h.367a1,1,0,0,1,1.01.989Zm2.966,8.707h-1.578v-7.319h1.578Zm5.493-5.121a8.337,8.337,0,0,0-2.795,5.121h-1.31v-7.319h1.4a2.377,2.377,0,1,0,0-4.754h-.39a2.39,2.39,0,0,0-2.4,2.377v.989h-1.578v-.989a2.39,2.39,0,0,0-2.4-2.377h-.367a2.377,2.377,0,1,0,0,4.754h1.377v7.319h-1.36a8.337,8.337,0,0,0-2.795-5.121,9.4,9.4,0,0,1-3.33-7.134,9.642,9.642,0,0,1,19.274,0A9.4,9.4,0,0,1,124.245,120.487Zm-4.1-3.586v-.989a1,1,0,0,1,1.01-.989h.39a.989.989,0,1,1,0,1.978Z" transform="translate(-89.419 -93.717)" fill="#ea7613"/>
    <g id="Group_9048" data-name="Group 9048" transform="translate(9 0)">
      <path id="Path_20670" data-name="Path 20670" d="M39.634,35.094a1.965,1.965,0,0,1-1.4-.579l-1.952-1.946.98-.983,1.952,1.946a.668.668,0,0,0,.859.032l2.392-2.306a.659.659,0,0,0,.032-.844l-1.905-1.9a.694.694,0,0,1-.082-.884,14.238,14.238,0,0,0,2.17-5.1.694.694,0,0,1,.679-.552h2.715a.634.634,0,0,0,.576-.6V18.018a.652.652,0,0,0-.688-.573H43.2a.694.694,0,0,1-.685-.58A13.781,13.781,0,0,0,40.42,11.7a.694.694,0,0,1,.091-.87L42.463,8.88a.66.66,0,0,0,.032-.852L40.183,5.642a.668.668,0,0,0-.852-.032l-1.905,1.9a.694.694,0,0,1-.881.082,14.322,14.322,0,0,0-5.117-2.164.694.694,0,0,1-.553-.68V1.992a.575.575,0,0,0-.526-.6H26.984a.634.634,0,0,0-.576.6V4.83a.694.694,0,0,1-.58.685A13.867,13.867,0,0,0,20.643,7.6a.694.694,0,0,1-.868-.091L17.824,5.565a.669.669,0,0,0-.859-.032L14.572,7.839a.659.659,0,0,0-.031.844l1.905,1.9a.694.694,0,0,1,.082.884,14.238,14.238,0,0,0-2.17,5.1.694.694,0,0,1-.679.552H10.964a.634.634,0,0,0-.576.6v3.355a.635.635,0,0,0,.607.573H13.76a.694.694,0,0,1,.685.58A13.778,13.778,0,0,0,16.537,27.4a.694.694,0,0,1-.091.87l-1.952,1.946a.66.66,0,0,0-.032.852l2.313,2.386a.668.668,0,0,0,.852.032l1.905-1.9.98.983L18.56,34.515a.689.689,0,0,1-.087.074,2.052,2.052,0,0,1-2.682-.155l-.008-.008-2.358-2.433a.707.707,0,0,1-.066-.079,2.042,2.042,0,0,1,.155-2.68l1.559-1.555a15.255,15.255,0,0,1-1.887-4.639H11a2.019,2.019,0,0,1-1.99-1.824A.7.7,0,0,1,9,21.13V17.724a2.019,2.019,0,0,1,1.828-1.986.693.693,0,0,1,.086-.005h2.211a15.689,15.689,0,0,1,1.939-4.567L13.514,9.619a.691.691,0,0,1-.074-.087,2.042,2.042,0,0,1,.155-2.68l.008-.008,2.44-2.352a.7.7,0,0,1,.079-.066,2.052,2.052,0,0,1,2.682.155l1.561,1.557A15.344,15.344,0,0,1,25.02,4.256V1.992A2.018,2.018,0,0,1,26.848.005.688.688,0,0,1,26.933,0h3.415a1.956,1.956,0,0,1,1.914,1.992v2.2A15.771,15.771,0,0,1,36.844,6.13L38.4,4.582a.688.688,0,0,1,.087-.074,2.052,2.052,0,0,1,2.682.155l.008.008L43.533,7.1a.7.7,0,0,1,.066.079,2.042,2.042,0,0,1-.155,2.68l-1.559,1.555a15.261,15.261,0,0,1,1.887,4.639h2.191a2.039,2.039,0,0,1,2.071,1.824.7.7,0,0,1,.005.086v3.406A2.019,2.019,0,0,1,46.21,23.36a.693.693,0,0,1-.086.005H43.913a15.689,15.689,0,0,1-1.939,4.567l1.551,1.547a.69.69,0,0,1,.074.087,2.042,2.042,0,0,1-.155,2.68l-.008.008L41,34.605a.7.7,0,0,1-.079.066,2.214,2.214,0,0,1-1.282.423Z" transform="translate(-9 0)"/>
    </g>
  </g>
</svg>
