<svg xmlns="http://www.w3.org/2000/svg" width="151.328" height="39.284" viewBox="0 0 151.328 39.284">
  <g id="App_store_text" transform="translate(-12.95 -9.57)">
    <path id="Path_25004" data-name="Path 25004" d="M457.151,89.958a4.016,4.016,0,0,1,1.732,1.641,5.3,5.3,0,0,1,0,4.956,4.075,4.075,0,0,1-1.732,1.606,5.748,5.748,0,0,1-2.609.558H451.5V89.4h3.042a5.75,5.75,0,0,1,2.609.57Zm-.1,6.619a3.415,3.415,0,0,0,.877-2.5,3.567,3.567,0,0,0-.877-2.541,3.314,3.314,0,0,0-2.507-.911h-1.515v6.824h1.515a3.348,3.348,0,0,0,2.507-.889Z" transform="translate(-400.06 -79.215)" fill="#fff"/>
    <path id="Path_25005" data-name="Path 25005" d="M532.411,112.355a3.514,3.514,0,0,1-1.333-1.344,4.078,4.078,0,0,1-.479-2.005,3.925,3.925,0,0,1,.5-1.994,3.494,3.494,0,0,1,1.356-1.344,4.155,4.155,0,0,1,3.828,0,3.419,3.419,0,0,1,1.356,1.344,3.955,3.955,0,0,1,.5,1.994A3.848,3.848,0,0,1,537.63,111a3.505,3.505,0,0,1-1.39,1.344,3.968,3.968,0,0,1-1.937.479,3.733,3.733,0,0,1-1.891-.479Zm3-1.139a2.141,2.141,0,0,0,.843-.843,2.7,2.7,0,0,0,.319-1.367,2.819,2.819,0,0,0-.308-1.367,2.09,2.09,0,0,0-.82-.843,2.312,2.312,0,0,0-1.105-.285,2.119,2.119,0,0,0-1.094.285,1.973,1.973,0,0,0-.8.843,2.922,2.922,0,0,0-.3,1.367,2.58,2.58,0,0,0,.615,1.846,2.031,2.031,0,0,0,1.538.649A1.713,1.713,0,0,0,535.408,111.216Z" transform="translate(-470.148 -93.215)" fill="#fff"/>
    <path id="Path_25006" data-name="Path 25006" d="M613.2,106.2l-2.29,7.394H609.3l-1.492-5.457-1.492,5.457h-1.606L602.4,106.2h1.561l1.538,5.947,1.572-5.947h1.6l1.5,5.913L611.7,106.2Z" transform="translate(-533.768 -94.102)" fill="#fff"/>
    <path id="Path_25007" data-name="Path 25007" d="M712.486,105.653a2.647,2.647,0,0,1,1.082,1.071,3.521,3.521,0,0,1,.387,1.72v4.364h-1.515v-4.136a2.161,2.161,0,0,0-.5-1.527,1.984,1.984,0,0,0-2.712,0,2.162,2.162,0,0,0-.5,1.527v4.136H707.2v-7.394h1.527v.843a2.5,2.5,0,0,1,.957-.706,3.025,3.025,0,0,1,1.242-.251,3.757,3.757,0,0,1,1.561.365Z" transform="translate(-626.628 -93.303)" fill="#fff"/>
    <rect id="Rectangle_13009" data-name="Rectangle 13009" width="1.527" height="9.923" transform="translate(89.276 9.57)" fill="#fff"/>
    <path id="Path_25008" data-name="Path 25008" d="M812.112,112.355a3.515,3.515,0,0,1-1.333-1.344,4.079,4.079,0,0,1-.479-2.005,3.925,3.925,0,0,1,.5-1.994,3.493,3.493,0,0,1,1.356-1.344,4.155,4.155,0,0,1,3.828,0,3.419,3.419,0,0,1,1.356,1.344,3.955,3.955,0,0,1,.5,1.994A3.848,3.848,0,0,1,817.33,111a3.505,3.505,0,0,1-1.39,1.344,3.967,3.967,0,0,1-1.937.479,3.733,3.733,0,0,1-1.891-.479Zm3-1.139a2.141,2.141,0,0,0,.843-.843,2.7,2.7,0,0,0,.319-1.367,2.819,2.819,0,0,0-.308-1.367,2.09,2.09,0,0,0-.82-.843,2.312,2.312,0,0,0-1.105-.285,2.118,2.118,0,0,0-1.094.285,2.04,2.04,0,0,0-.8.843,2.923,2.923,0,0,0-.3,1.367,2.58,2.58,0,0,0,.615,1.846A2.031,2.031,0,0,0,814,111.5,1.713,1.713,0,0,0,815.108,111.216Z" transform="translate(-717.981 -93.215)" fill="#fff"/>
    <path id="Path_25009" data-name="Path 25009" d="M885.856,107.012a3.394,3.394,0,0,1,3.031-1.812,3.059,3.059,0,0,1,1.527.342,3.093,3.093,0,0,1,1.037.854v-1.071h1.538v7.394H891.45v-1.105a3.126,3.126,0,0,1-1.06.877,3.314,3.314,0,0,1-1.527.353,3.369,3.369,0,0,1-1.743-.49,3.547,3.547,0,0,1-1.253-1.367,4.221,4.221,0,0,1-.467-1.994,4.1,4.1,0,0,1,.467-1.971Zm5.275.672a2.216,2.216,0,0,0-3.031-.866,2.163,2.163,0,0,0-.82.843,2.944,2.944,0,0,0,0,2.666,2.209,2.209,0,0,0,.832.877,2.079,2.079,0,0,0,1.094.3,2.231,2.231,0,0,0,1.105-.3,2.152,2.152,0,0,0,.82-.866,2.745,2.745,0,0,0,.319-1.333,2.624,2.624,0,0,0-.319-1.333Z" transform="translate(-784.525 -93.215)" fill="#fff"/>
    <path id="Path_25010" data-name="Path 25010" d="M965.479,88.315a3.394,3.394,0,0,1,3.042-1.812,2.863,2.863,0,0,1,1.424.319,2.818,2.818,0,0,1,1.117.843V84.1H972.6v9.923h-1.538V92.907a2.96,2.96,0,0,1-1.037.889,3.28,3.28,0,0,1-1.527.353,3.448,3.448,0,0,1-1.766-.49,3.489,3.489,0,0,1-1.265-1.367A4.221,4.221,0,0,1,965,90.3a4.1,4.1,0,0,1,.467-1.971Zm5.275.672a2.216,2.216,0,0,0-3.031-.866,2.164,2.164,0,0,0-.82.843,2.944,2.944,0,0,0,0,2.666,2.209,2.209,0,0,0,.832.877,2.079,2.079,0,0,0,1.094.3,2.231,2.231,0,0,0,1.105-.3,2.152,2.152,0,0,0,.82-.866,2.745,2.745,0,0,0,.319-1.333,2.625,2.625,0,0,0-.319-1.333Z" transform="translate(-855.056 -74.518)" fill="#fff"/>
    <path id="Path_25011" data-name="Path 25011" d="M1077.511,112.355a3.515,3.515,0,0,1-1.333-1.344,4.079,4.079,0,0,1-.479-2.005,3.925,3.925,0,0,1,.5-1.994,3.494,3.494,0,0,1,1.356-1.344,4.155,4.155,0,0,1,3.828,0,3.419,3.419,0,0,1,1.356,1.344,3.956,3.956,0,0,1,.5,1.994,3.848,3.848,0,0,1-.513,1.994,3.505,3.505,0,0,1-1.39,1.344,3.968,3.968,0,0,1-1.937.479,3.733,3.733,0,0,1-1.891-.479Zm3-1.139a2.141,2.141,0,0,0,.843-.843,2.7,2.7,0,0,0,.319-1.367,2.819,2.819,0,0,0-.308-1.367,2.09,2.09,0,0,0-.82-.843,2.312,2.312,0,0,0-1.105-.285,2.119,2.119,0,0,0-1.094.285,1.974,1.974,0,0,0-.8.843,2.922,2.922,0,0,0-.3,1.367,2.58,2.58,0,0,0,.615,1.846,2.031,2.031,0,0,0,1.538.649A1.713,1.713,0,0,0,1080.508,111.216Z" transform="translate(-953.144 -93.215)" fill="#fff"/>
    <path id="Path_25012" data-name="Path 25012" d="M1160.4,105.653a2.647,2.647,0,0,1,1.082,1.071,3.521,3.521,0,0,1,.387,1.72v4.364h-1.515v-4.136a2.162,2.162,0,0,0-.5-1.527,1.776,1.776,0,0,0-1.356-.535,1.819,1.819,0,0,0-1.367.535,2.162,2.162,0,0,0-.5,1.527v4.136H1155.1v-7.394h1.527v.843a2.5,2.5,0,0,1,.957-.706,3.025,3.025,0,0,1,1.242-.251,3.756,3.756,0,0,1,1.561.365Z" transform="translate(-1023.498 -93.303)" fill="#fff"/>
    <path id="Path_25013" data-name="Path 25013" d="M1259.027,93.276v4.09a.786.786,0,0,0,.194.592.936.936,0,0,0,.661.182h.934v1.276h-1.208a2.349,2.349,0,0,1-1.584-.479,1.992,1.992,0,0,1-.547-1.572v-4.09h-.877V92.034h.877V90.2h1.538v1.834h1.8v1.242h-1.789Z" transform="translate(-1113.434 -79.924)" fill="#fff"/>
    <path id="Path_25014" data-name="Path 25014" d="M1311.332,86.869a2.637,2.637,0,0,1,1.048,1.071,3.652,3.652,0,0,1,.387,1.72v4.364h-1.515V89.888a2.161,2.161,0,0,0-.5-1.527,1.776,1.776,0,0,0-1.356-.535,1.819,1.819,0,0,0-1.367.535,2.161,2.161,0,0,0-.5,1.527v4.136H1306V84.1h1.527v3.4a2.676,2.676,0,0,1,.991-.729,3.276,3.276,0,0,1,1.31-.251,3.327,3.327,0,0,1,1.5.365Z" transform="translate(-1157.206 -74.518)" fill="#fff"/>
    <path id="Path_25015" data-name="Path 25015" d="M1385.135,109.586h-5.651a2.05,2.05,0,0,0,.661,1.424,2.1,2.1,0,0,0,1.447.535,1.786,1.786,0,0,0,1.743-1.037h1.652a3.317,3.317,0,0,1-1.219,1.675,3.549,3.549,0,0,1-2.176.649,3.388,3.388,0,0,1-1.9-.479,3.309,3.309,0,0,1-1.31-1.344,4.079,4.079,0,0,1-.479-2.005,4.2,4.2,0,0,1,.467-2.005,3.187,3.187,0,0,1,1.3-1.333,3.916,3.916,0,0,1,1.925-.467,3.663,3.663,0,0,1,1.869.456,3.272,3.272,0,0,1,1.276,1.276,3.823,3.823,0,0,1,.456,1.9A2.066,2.066,0,0,1,1385.135,109.586Zm-1.538-1.242a1.707,1.707,0,0,0-.6-1.356,2.151,2.151,0,0,0-1.458-.513,1.9,1.9,0,0,0-1.356.5,2.07,2.07,0,0,0-.672,1.367Z" transform="translate(-1220.914 -93.215)" fill="#fff"/>
    <path id="Path_25016" data-name="Path 25016" d="M456.354,272.245h-5.526l-.911,2.643H447L451.99,261h3.236l4.99,13.888h-2.939l-.911-2.643Zm-.763-2.233-2.005-5.8-2.005,5.8Z" transform="translate(-396.073 -231.264)" fill="#fff"/>
    <path id="Path_25017" data-name="Path 25017" d="M583.561,285.2a4.419,4.419,0,0,1,2.153-.5,5.124,5.124,0,0,1,2.552.695,4.973,4.973,0,0,1,1.812,1.971,6.355,6.355,0,0,1,.661,2.974,6.435,6.435,0,0,1-.661,2.985,5.027,5.027,0,0,1-1.812,2.017,4.716,4.716,0,0,1-2.552.718,4.094,4.094,0,0,1-2.131-.5,4.657,4.657,0,0,1-1.5-1.253v6.813H579.3V284.871h2.78v1.584a4.279,4.279,0,0,1,1.481-1.265Zm3.931,3.418a2.808,2.808,0,0,0-2.506-1.481,2.732,2.732,0,0,0-1.424.387,2.923,2.923,0,0,0-1.071,1.128,3.862,3.862,0,0,0,0,3.464,2.923,2.923,0,0,0,1.071,1.128,2.732,2.732,0,0,0,1.424.387,2.783,2.783,0,0,0,1.436-.4,2.923,2.923,0,0,0,1.071-1.128,3.521,3.521,0,0,0,.41-1.743,3.432,3.432,0,0,0-.41-1.72Z" transform="translate(-513.3 -252.264)" fill="#fff"/>
    <path id="Path_25018" data-name="Path 25018" d="M701.761,285.2a4.419,4.419,0,0,1,2.153-.5,5.125,5.125,0,0,1,2.552.695,4.973,4.973,0,0,1,1.811,1.971,6.355,6.355,0,0,1,.661,2.974,6.435,6.435,0,0,1-.661,2.985,5.028,5.028,0,0,1-1.811,2.017,4.716,4.716,0,0,1-2.552.718,4.094,4.094,0,0,1-2.131-.5,4.658,4.658,0,0,1-1.5-1.253v6.813H697.5V284.871h2.78v1.584a4.28,4.28,0,0,1,1.481-1.265Zm3.931,3.418a2.808,2.808,0,0,0-2.506-1.481,2.732,2.732,0,0,0-1.424.387,2.923,2.923,0,0,0-1.071,1.128,3.861,3.861,0,0,0,0,3.464,2.923,2.923,0,0,0,1.071,1.128,2.732,2.732,0,0,0,1.424.387,2.783,2.783,0,0,0,1.436-.4,2.923,2.923,0,0,0,1.071-1.128,3.521,3.521,0,0,0,.41-1.743,3.432,3.432,0,0,0-.41-1.72Z" transform="translate(-618.033 -252.264)" fill="#fff"/>
    <path id="Path_25019" data-name="Path 25019" d="M856.629,273.106a4.219,4.219,0,0,1-1.834-1.436,3.725,3.725,0,0,1-.695-2.21h2.985a1.911,1.911,0,0,0,.6,1.356,2.159,2.159,0,0,0,1.5.5,2.327,2.327,0,0,0,1.527-.467,1.5,1.5,0,0,0,.558-1.219,1.275,1.275,0,0,0-.376-1.014,2.641,2.641,0,0,0-.946-.627,16.142,16.142,0,0,0-1.561-.5,16.2,16.2,0,0,1-2.2-.786,3.861,3.861,0,0,1-1.447-1.173,3.369,3.369,0,0,1-.6-2.1,3.6,3.6,0,0,1,.615-2.142,4.011,4.011,0,0,1,1.732-1.4,6.355,6.355,0,0,1,2.541-.49,5.5,5.5,0,0,1,3.486,1.048A3.874,3.874,0,0,1,864,263.353h-3.065a1.6,1.6,0,0,0-.6-1.185,2.3,2.3,0,0,0-1.5-.467,1.748,1.748,0,0,0-1.3.422,1.52,1.52,0,0,0-.49,1.208,1.049,1.049,0,0,0,.365.923,2.58,2.58,0,0,0,.911.592c.365.148.877.33,1.538.524a16.266,16.266,0,0,1,2.21.8,3.885,3.885,0,0,1,1.47,1.2,3.334,3.334,0,0,1,.615,2.085,3.6,3.6,0,0,1-.581,2.062,4.052,4.052,0,0,1-1.686,1.515,5.764,5.764,0,0,1-2.643.57,6.382,6.382,0,0,1-2.609-.5Z" transform="translate(-756.791 -229.846)" fill="#fff"/>
    <path id="Path_25020" data-name="Path 25020" d="M959.813,267.4v5.321a1.051,1.051,0,0,0,.273.809,1.289,1.289,0,0,0,.9.251h1.287v2.347h-1.743q-3.52,0-3.52-3.418V267.4H955.7v-2.279h1.31V262.4h2.8v2.723h2.461V267.4Z" transform="translate(-846.816 -232.504)" fill="#fff"/>
    <path id="Path_25021" data-name="Path 25021" d="M1027.623,295.264a5.084,5.084,0,0,1-1.994-1.994,6.064,6.064,0,0,1-.729-2.985,5.948,5.948,0,0,1,.741-2.985,5.122,5.122,0,0,1,2.039-1.994,6.234,6.234,0,0,1,5.765,0,5.2,5.2,0,0,1,2.039,1.994,5.833,5.833,0,0,1,.741,2.985,5.734,5.734,0,0,1-.763,2.985,5.253,5.253,0,0,1-2.062,1.994,6.023,6.023,0,0,1-2.905.706,5.783,5.783,0,0,1-2.86-.706Zm4.284-2.085a2.617,2.617,0,0,0,1.06-1.105,3.74,3.74,0,0,0,.4-1.789,3.335,3.335,0,0,0-.82-2.415,2.718,2.718,0,0,0-2.016-.843,2.65,2.65,0,0,0-1.994.843,3.362,3.362,0,0,0-.809,2.415,3.425,3.425,0,0,0,.786,2.415,2.6,2.6,0,0,0,1.971.843A2.294,2.294,0,0,0,1031.907,293.179Z" transform="translate(-908.132 -252.176)" fill="#fff"/>
    <path id="Path_25022" data-name="Path 25022" d="M1146.381,285.3a3.9,3.9,0,0,1,1.971-.5v2.917h-.741a2.78,2.78,0,0,0-1.971.615,2.835,2.835,0,0,0-.661,2.142v5.48h-2.78V284.948h2.78v1.709a3.838,3.838,0,0,1,1.4-1.367Z" transform="translate(-1012.068 -252.352)" fill="#fff"/>
    <path id="Path_25023" data-name="Path 25023" d="M1217.358,291.217h-8.043a2.752,2.752,0,0,0,.832,1.868,2.551,2.551,0,0,0,1.812.672,2.281,2.281,0,0,0,2.21-1.333h3a5.012,5.012,0,0,1-1.823,2.609,5.322,5.322,0,0,1-3.315,1.025,5.142,5.142,0,0,1-2.848-.706,5.028,5.028,0,0,1-1.971-1.994,6.732,6.732,0,0,1-.011-5.981,4.8,4.8,0,0,1,1.948-1.982,6.276,6.276,0,0,1,5.7-.023,4.79,4.79,0,0,1,1.925,1.914,5.82,5.82,0,0,1,.684,2.848c0,1.071-.023.752-.08,1.071Zm-2.8-1.868a2.21,2.21,0,0,0-.775-1.72,2.725,2.725,0,0,0-1.846-.649,2.463,2.463,0,0,0-1.743.627,2.749,2.749,0,0,0-.866,1.743Z" transform="translate(-1069.042 -252.264)" fill="#fff"/>
    <path id="Path_25024" data-name="Path 25024" d="M227.032,124.438a6.575,6.575,0,0,1,1.7-4.831,5.9,5.9,0,0,1,4.637-2.347,7.889,7.889,0,0,1-1.344,4.58C229.357,125.349,227.032,124.438,227.032,124.438Z" transform="translate(-201.147 -103.896)" fill="#fff"/>
    <path id="Path_25025" data-name="Path 25025" d="M126.562,186.055c1.868-.08,3.669-1.7,7.087-1.379,2.814.262,5.127,2.86,4.922,3.076s-3.452,2.381-3.35,6.175a6.762,6.762,0,0,0,4.238,6.335s-1.72,6.118-6.016,8.283c-1.265.638-4.853-1.276-6.266-1.287-1.5,0-4.614,1.812-6.05,1.344-3.714-1.208-7.03-8-7.428-13.512-.467-6.392,3.407-9.559,6.016-10.094,3.953-.82,4.614,1.162,6.87,1.071Z" transform="translate(-100.711 -163.6)" fill="#fff"/>
  </g>
</svg>
