<svg id="Book_icon" xmlns="http://www.w3.org/2000/svg" width="70.8" height="54.09" viewBox="0 0 70.8 54.09">
  <g id="Group_8424" data-name="Group 8424" transform="translate(0 0)">
    <path id="Path_19778" data-name="Path 19778" d="M37.36,35.049h-.006a2.5,2.5,0,0,0-1.775.735,2.523,2.523,0,0,0-.746,1.8v37.99a2.542,2.542,0,0,0,2.537,2.533c5.9.014,15.777,1.243,22.593,8.376V46.724a2.428,2.428,0,0,0-.348-1.283C54.02,36.432,43.27,35.063,37.36,35.049Z" transform="translate(-26.529 -35.049)" fill="#ea7613"/>
    <path id="Path_19779" data-name="Path 19779" d="M181.881,75.572V37.582a2.523,2.523,0,0,0-.746-1.8,2.5,2.5,0,0,0-1.775-.735h-.006c-5.91.014-16.66,1.383-22.255,10.392a2.428,2.428,0,0,0-.348,1.283V86.48c6.816-7.133,16.7-8.362,22.593-8.376A2.542,2.542,0,0,0,181.881,75.572Z" transform="translate(-119.384 -35.048)" fill="#ea7613"/>
    <path id="Path_19780" data-name="Path 19780" d="M198.87,71.8h-1.837v31.763a6.482,6.482,0,0,1-6.46,6.466c-5,.012-13.25.99-19.091,6.518,10.1-2.473,20.752-.866,26.821.518a2.533,2.533,0,0,0,3.1-2.468V74.334A2.536,2.536,0,0,0,198.87,71.8Z" transform="translate(-130.603 -63.04)" fill="#ea7613"/>
    <path id="Path_19781" data-name="Path 19781" d="M4.37,103.564V71.8H2.533A2.536,2.536,0,0,0,0,74.334V114.6a2.533,2.533,0,0,0,3.1,2.468c6.069-1.383,16.719-2.991,26.821-.518-5.841-5.528-14.089-6.506-19.091-6.518A6.482,6.482,0,0,1,4.37,103.564Z" transform="translate(0 -63.04)" fill="#ea7613"/>
  </g>
</svg>
