<svg xmlns="http://www.w3.org/2000/svg" xmlns:xlink="http://www.w3.org/1999/xlink" width="331" height="132" viewBox="0 0 331 132">
  <defs>
    <filter id="Rectangle_11430" x="0" y="0" width="331" height="132" filterUnits="userSpaceOnUse">
      <feOffset dx="7" dy="-8" input="SourceAlpha"/>
      <feGaussianBlur stdDeviation="3" result="blur"/>
      <feFlood flood-opacity="0.09"/>
      <feComposite operator="in" in2="blur"/>
      <feComposite in="SourceGraphic"/>
    </filter>
  </defs>
  <g id="Faqs" transform="translate(-849 -5027)">
    <g transform="matrix(1, 0, 0, 1, 849, 5027)" filter="url(#Rectangle_11430)">
      <rect id="Rectangle_11430-2" data-name="Rectangle 11430" width="313" height="114" rx="11" transform="translate(2 17)" fill="#fff"/>
    </g>
    <g id="Rectangle_11431" data-name="Rectangle 11431" transform="translate(862 5057)" fill="#fff" stroke="#dbdbdb" stroke-width="1">
      <rect width="292" height="88" rx="10" stroke="none"/>
      <rect x="0.5" y="0.5" width="291" height="87" rx="9.5" fill="none"/>
    </g>
    <path id="Path_25761" data-name="Path 25761" d="M2.624,16l1.12-6.448L6.816,16.5l3.1-6.928L11.008,16h1.664L10.656,4.528,6.912,12.816,3.2,4.528.96,16Zm16.928-5.952a2.456,2.456,0,0,0-2-.96,3.293,3.293,0,0,0-3.28,3.536,3.333,3.333,0,0,0,3.264,3.584,2.587,2.587,0,0,0,2.016-.912V16H21.12V9.264H19.552Zm-1.808.448a1.931,1.931,0,0,1,1.9,2.176,1.923,1.923,0,0,1-1.9,2.128,1.966,1.966,0,0,1-1.872-2.144A1.962,1.962,0,0,1,17.744,10.5ZM23.1,16h1.568V12.512A2.17,2.17,0,0,1,25.1,10.96a1.222,1.222,0,0,1,.976-.368,1.419,1.419,0,0,1,.8.24l.64-1.424a2.326,2.326,0,0,0-1.232-.32,1.811,1.811,0,0,0-.96.224,2.712,2.712,0,0,0-.656.56V9.264H23.1ZM28.416,4.336V16h1.568V13.408l.288-.288L32.48,16h1.984l-3.1-3.936,2.9-2.8h-2.08L29.984,11.52V4.336Zm11.616,9.392a2.433,2.433,0,0,1-.624.736,1.651,1.651,0,0,1-1.072.336,1.6,1.6,0,0,1-1.2-.432,2.226,2.226,0,0,1-.576-1.36h4.832v-.192a4.045,4.045,0,0,0-.944-2.848,2.9,2.9,0,0,0-2.16-.88A3.069,3.069,0,0,0,36.032,10a3.948,3.948,0,0,0-1.072,2.768,3.616,3.616,0,0,0,.992,2.576,2.987,2.987,0,0,0,2.272.864,3.706,3.706,0,0,0,1.984-.512,3.532,3.532,0,0,0,1.136-1.232Zm-3.36-2a1.765,1.765,0,0,1,.48-.864,1.635,1.635,0,0,1,2.16-.048,1.629,1.629,0,0,1,.48.912ZM45.84,10.7V9.264h-1.2V6.8H43.072V9.264h-.656V10.7h.656V16H44.64V10.7Zm5.168-.432a2.313,2.313,0,0,0-.768-.832,2.108,2.108,0,0,0-1.248-.352,2.171,2.171,0,0,0-1.648.64,2.1,2.1,0,0,0-.56,1.44,1.469,1.469,0,0,0,.48,1.136,3.323,3.323,0,0,0,.928.576l.576.272a2.066,2.066,0,0,1,.672.416.726.726,0,0,1,.208.512.794.794,0,0,1-.224.528.944.944,0,0,1-.64.224.96.96,0,0,1-.688-.256,1.773,1.773,0,0,1-.368-.64l-1.28.608a2.625,2.625,0,0,0,.864,1.232,2.319,2.319,0,0,0,1.456.432,2.4,2.4,0,0,0,1.888-.752,2.237,2.237,0,0,0,.592-1.536,1.663,1.663,0,0,0-.5-1.248,3.233,3.233,0,0,0-.944-.624l-.8-.4c-.336-.176-.432-.208-.528-.272a.431.431,0,0,1-.224-.384.508.508,0,0,1,.144-.352.665.665,0,0,1,.48-.176,1.128,1.128,0,0,1,.96.576Zm5.664-4.944V16H61.44V14.464H58.3V5.328Zm6.016,3.936V16h1.568V9.264ZM62.464,6.48a1.008,1.008,0,1,0,1.008-1.008A.984.984,0,0,0,62.464,6.48ZM66.24,4.336V16h1.568V13.408l.288-.288L70.3,16h1.984l-3.1-3.936,2.9-2.8H70L67.808,11.52V4.336Zm11.616,9.392a2.433,2.433,0,0,1-.624.736,1.651,1.651,0,0,1-1.072.336,1.6,1.6,0,0,1-1.2-.432,2.226,2.226,0,0,1-.576-1.36h4.832v-.192a4.045,4.045,0,0,0-.944-2.848,2.9,2.9,0,0,0-2.16-.88A3.069,3.069,0,0,0,73.856,10a3.948,3.948,0,0,0-1.072,2.768,3.615,3.615,0,0,0,.992,2.576,2.987,2.987,0,0,0,2.272.864,3.706,3.706,0,0,0,1.984-.512,3.532,3.532,0,0,0,1.136-1.232Zm-3.36-2a1.765,1.765,0,0,1,.48-.864,1.635,1.635,0,0,1,2.16-.048,1.629,1.629,0,0,1,.48.912Zm6.352-7.392V16h1.568V4.336ZM83.9,19.664h1.76l5.36-10.4h-1.76L87.312,13.2l-1.92-3.936H83.5l2.88,5.68Zm17.632-12.8V5.328H95.008V6.864h2.448V16h1.632V6.864Zm3.76,2.224a3.477,3.477,0,0,0-3.6,3.552,3.6,3.6,0,0,0,7.2,0A3.477,3.477,0,0,0,105.3,9.088Zm0,5.712a1.939,1.939,0,0,1-2-2.144,2.006,2.006,0,1,1,4,0A1.939,1.939,0,0,1,105.3,14.8Zm14.288-9.664a5.414,5.414,0,0,0-5.552,5.536,5.552,5.552,0,0,0,11.1,0A5.414,5.414,0,0,0,119.584,5.136Zm0,9.568a3.82,3.82,0,0,1-3.92-4.032,3.922,3.922,0,1,1,7.84,0A3.82,3.82,0,0,1,119.584,14.7Zm8.88.512a2.675,2.675,0,0,0,2.016.992,3.408,3.408,0,0,0,3.264-3.616,3.292,3.292,0,0,0-3.28-3.5,2.534,2.534,0,0,0-2,.912V9.264H126.9v10.4h1.568Zm1.808-4.72a1.962,1.962,0,0,1,1.872,2.16,1.966,1.966,0,0,1-1.872,2.144,1.923,1.923,0,0,1-1.9-2.128A1.931,1.931,0,0,1,130.272,10.5Zm9.824,3.232a2.433,2.433,0,0,1-.624.736,1.651,1.651,0,0,1-1.072.336,1.6,1.6,0,0,1-1.2-.432,2.226,2.226,0,0,1-.576-1.36h4.832v-.192a4.045,4.045,0,0,0-.944-2.848,2.9,2.9,0,0,0-2.16-.88A3.069,3.069,0,0,0,136.1,10a3.948,3.948,0,0,0-1.072,2.768,3.616,3.616,0,0,0,.992,2.576,2.987,2.987,0,0,0,2.272.864,3.706,3.706,0,0,0,1.984-.512,3.532,3.532,0,0,0,1.136-1.232Zm-3.36-2a1.765,1.765,0,0,1,.48-.864,1.635,1.635,0,0,1,2.16-.048,1.629,1.629,0,0,1,.48.912ZM143.072,16h1.568V12.768c0-2.176.72-2.272,1.424-2.272.592,0,1.232.048,1.232,1.76V16h1.568V11.872A3.01,3.01,0,0,0,148.448,10a2.252,2.252,0,0,0-1.984-.912,2.32,2.32,0,0,0-1.824.8V9.264h-1.568ZM154.864,5.328V16H156.5V5.328ZM158.752,16h1.568V12.768c0-2.176.72-2.272,1.424-2.272.592,0,1.232.048,1.232,1.76V16h1.568V11.872A3.01,3.01,0,0,0,164.128,10a2.252,2.252,0,0,0-1.984-.912,2.32,2.32,0,0,0-1.824.8V9.264h-1.568Zm17.312-4.048h2.656a2.861,2.861,0,0,1-.9,1.808,3.207,3.207,0,0,1-2.384.944,3.466,3.466,0,0,1-2.672-1.072,4.429,4.429,0,0,1,.032-5.888,3.85,3.85,0,0,1,2.816-1.1A3.6,3.6,0,0,1,177.5,7.1a4.349,4.349,0,0,1,1.312,1.216l1.3-.912a4.851,4.851,0,0,0-1.728-1.6,5.773,5.773,0,0,0-2.784-.672,5.686,5.686,0,0,0-4.016,1.6,5.7,5.7,0,0,0-1.552,3.984,5.711,5.711,0,0,0,1.584,4.032,4.65,4.65,0,0,0,3.632,1.456,4.989,4.989,0,0,0,3.632-1.36,5.826,5.826,0,0,0,1.584-4.32v-.08h-4.4ZM182.224,16h1.568V12.512a2.17,2.17,0,0,1,.432-1.552,1.222,1.222,0,0,1,.976-.368,1.419,1.419,0,0,1,.8.24l.64-1.424a2.326,2.326,0,0,0-1.232-.32,1.811,1.811,0,0,0-.96.224,2.712,2.712,0,0,0-.656.56V9.264h-1.568Zm9.536-2.272a2.433,2.433,0,0,1-.624.736,1.651,1.651,0,0,1-1.072.336,1.6,1.6,0,0,1-1.2-.432,2.226,2.226,0,0,1-.576-1.36h4.832v-.192a4.045,4.045,0,0,0-.944-2.848,2.9,2.9,0,0,0-2.16-.88A3.069,3.069,0,0,0,187.76,10a3.948,3.948,0,0,0-1.072,2.768,3.616,3.616,0,0,0,.992,2.576,2.987,2.987,0,0,0,2.272.864,3.706,3.706,0,0,0,1.984-.512,3.532,3.532,0,0,0,1.136-1.232Zm-3.36-2a1.765,1.765,0,0,1,.48-.864,1.635,1.635,0,0,1,2.16-.048,1.629,1.629,0,0,1,.48.912Zm11.072,2a2.433,2.433,0,0,1-.624.736,1.651,1.651,0,0,1-1.072.336,1.6,1.6,0,0,1-1.2-.432,2.226,2.226,0,0,1-.576-1.36h4.832v-.192a4.045,4.045,0,0,0-.944-2.848,2.9,2.9,0,0,0-2.16-.88,3.069,3.069,0,0,0-2.256.912,3.948,3.948,0,0,0-1.072,2.768,3.616,3.616,0,0,0,.992,2.576,2.987,2.987,0,0,0,2.272.864,3.706,3.706,0,0,0,1.984-.512,3.532,3.532,0,0,0,1.136-1.232Zm-3.36-2a1.765,1.765,0,0,1,.48-.864,1.635,1.635,0,0,1,2.16-.048,1.629,1.629,0,0,1,.48.912ZM202.448,16h1.568V12.768c0-2.176.72-2.272,1.424-2.272.592,0,1.232.048,1.232,1.76V16h1.568V11.872A3.01,3.01,0,0,0,207.824,10a2.252,2.252,0,0,0-1.984-.912,2.32,2.32,0,0,0-1.824.8V9.264h-1.568ZM219.28,5.136a5.414,5.414,0,0,0-5.552,5.536,5.552,5.552,0,0,0,11.1,0A5.414,5.414,0,0,0,219.28,5.136Zm0,9.568a3.82,3.82,0,0,1-3.92-4.032,3.922,3.922,0,1,1,7.84,0A3.82,3.82,0,0,1,219.28,14.7Zm7.3,1.3h1.568V12.768c0-2.176.72-2.272,1.424-2.272.592,0,1.232.048,1.232,1.76V16h1.568V11.872A3.01,3.01,0,0,0,231.952,10a2.252,2.252,0,0,0-1.984-.912,2.32,2.32,0,0,0-1.824.8V9.264h-1.568ZM6.688,25.864V24.328H.16v1.536H2.608V35H4.24V25.864ZM7.36,35H8.928V31.752a3.017,3.017,0,0,1,.32-1.7A1.391,1.391,0,0,1,10.4,29.5a1.182,1.182,0,0,1,.88.352,1.623,1.623,0,0,1,.3,1.168V35h1.568V30.872A3.315,3.315,0,0,0,12.72,29a2.291,2.291,0,0,0-1.984-.912,2.421,2.421,0,0,0-1.808.752v-5.5H7.36Zm7.6-6.736v3.9a2.818,2.818,0,0,0,.72,2.208,2.959,2.959,0,0,0,2.128.832A3.072,3.072,0,0,0,20,34.376a2.818,2.818,0,0,0,.72-2.208v-3.9H19.152V32.12a1.939,1.939,0,0,1-.288,1.216,1.362,1.362,0,0,1-2.048,0,1.939,1.939,0,0,1-.288-1.216V28.264ZM22.7,35h1.568V31.512A2.17,2.17,0,0,1,24.7,29.96a1.222,1.222,0,0,1,.976-.368,1.419,1.419,0,0,1,.8.24l.64-1.424a2.326,2.326,0,0,0-1.232-.32,1.811,1.811,0,0,0-.96.224,2.712,2.712,0,0,0-.656.56v-.608H22.7Zm9.1-5.728a2.313,2.313,0,0,0-.768-.832,2.108,2.108,0,0,0-1.248-.352,2.171,2.171,0,0,0-1.648.64,2.1,2.1,0,0,0-.56,1.44,1.469,1.469,0,0,0,.48,1.136,3.323,3.323,0,0,0,.928.576l.576.272a2.066,2.066,0,0,1,.672.416.726.726,0,0,1,.208.512.794.794,0,0,1-.224.528.944.944,0,0,1-.64.224.96.96,0,0,1-.688-.256,1.773,1.773,0,0,1-.368-.64l-1.28.608a2.625,2.625,0,0,0,.864,1.232,2.319,2.319,0,0,0,1.456.432,2.4,2.4,0,0,0,1.888-.752,2.237,2.237,0,0,0,.592-1.536,1.663,1.663,0,0,0-.5-1.248,3.233,3.233,0,0,0-.944-.624l-.8-.4c-.336-.176-.432-.208-.528-.272a.431.431,0,0,1-.224-.384.508.508,0,0,1,.144-.352.665.665,0,0,1,.48-.176,1.128,1.128,0,0,1,.96.576Zm6.576-.224a2.456,2.456,0,0,0-2-.96,3.293,3.293,0,0,0-3.28,3.536,3.333,3.333,0,0,0,3.264,3.584,2.587,2.587,0,0,0,2.016-.912V35h1.568V23.336H38.384Zm-1.808.448a1.931,1.931,0,0,1,1.9,2.176,1.923,1.923,0,0,1-1.9,2.128A1.966,1.966,0,0,1,34.7,31.656,1.962,1.962,0,0,1,36.576,29.5Zm10.288-.448a2.456,2.456,0,0,0-2-.96,3.293,3.293,0,0,0-3.28,3.536,3.333,3.333,0,0,0,3.264,3.584,2.587,2.587,0,0,0,2.016-.912V35h1.568V28.264H46.864Zm-1.808.448a1.931,1.931,0,0,1,1.9,2.176,1.923,1.923,0,0,1-1.9,2.128,1.966,1.966,0,0,1-1.872-2.144A1.962,1.962,0,0,1,45.056,29.5Zm4.864,9.168h1.76l5.36-10.4H55.28L53.328,32.2l-1.92-3.936H49.52l2.88,5.68Z" transform="translate(875 5089.376)" fill="#25335c"/>
    <path id="Path_25760" data-name="Path 25760" d="M2.366,0V-6.058L8.658.533v-9.2H7.332v6.006L1.04-9.256V0ZM15.522-8.671H10.738V0h4.784V-1.248H12.064v-2.73h3.354V-5.226H12.064v-2.2h3.458Zm.728,0L19.942.559,22.23-5.59,24.492.559l3.874-9.23h-1.43l-2.366,5.8L22.308-9.087l-2.34,6.214-2.288-5.8Zm17.758,1.3a2.954,2.954,0,0,0-.663-.871A2.557,2.557,0,0,0,31.6-8.827a2.341,2.341,0,0,0-2.535,2.288,2.446,2.446,0,0,0,1.768,2.2l.832.351c.572.234,1.248.6,1.248,1.482a1.393,1.393,0,0,1-1.43,1.456,1.368,1.368,0,0,1-1.131-.52,1.873,1.873,0,0,1-.364-1.105l-1.313.286A2.807,2.807,0,0,0,29.406-.7a2.537,2.537,0,0,0,2.041.871,2.672,2.672,0,0,0,2.8-2.782c0-.988-.442-1.9-2.041-2.548l-.871-.351c-.845-.338-.936-.793-.936-1.053a1.075,1.075,0,0,1,1.222-1.04,1.383,1.383,0,0,1,.936.312,1.377,1.377,0,0,1,.39.546Zm1.9-1.3V0H39.78V-1.248H37.232V-8.671Zm9.906,0H41.028V0h4.784V-1.248H42.354v-2.73h3.354V-5.226H42.354v-2.2h3.458Zm6.11,1.248V-8.671h-5.3v1.248h1.989V0h1.326V-7.423Zm5.967,0V-8.671h-5.3v1.248h1.989V0H55.9V-7.423Zm5.954-1.248H59.059V0h4.784V-1.248H60.385v-2.73h3.354V-5.226H60.385v-2.2h3.458Zm1.716,0V0h1.326V-3.549h.234L69.6,0h1.6L68.5-3.705a2.378,2.378,0,0,0,1.924-2.418,2.419,2.419,0,0,0-1.027-2.041,3.883,3.883,0,0,0-2.288-.507Zm1.326,1.222h.455c.65,0,1.807.117,1.807,1.339,0,1.378-1.482,1.417-1.846,1.417h-.416Zm10.426.078a2.954,2.954,0,0,0-.663-.871,2.557,2.557,0,0,0-1.742-.585,2.341,2.341,0,0,0-2.535,2.288,2.446,2.446,0,0,0,1.768,2.2l.832.351c.572.234,1.248.6,1.248,1.482a1.393,1.393,0,0,1-1.43,1.456,1.368,1.368,0,0,1-1.131-.52,1.873,1.873,0,0,1-.364-1.105l-1.313.286A2.807,2.807,0,0,0,72.709-.7,2.537,2.537,0,0,0,74.75.169a2.672,2.672,0,0,0,2.795-2.782c0-.988-.442-1.9-2.041-2.548l-.871-.351c-.845-.338-.936-.793-.936-1.053a1.075,1.075,0,0,1,1.222-1.04,1.383,1.383,0,0,1,.936.312,1.377,1.377,0,0,1,.39.546Z" transform="translate(875 5083.293)" fill="#ea7613"/>
  </g>
</svg>
