<svg xmlns="http://www.w3.org/2000/svg" xmlns:xlink="http://www.w3.org/1999/xlink" width="159.002" height="38.998" viewBox="0 0 159.002 38.998">
  <defs>
    <clipPath id="clip-path">
      <rect id="Rectangle_13006" data-name="Rectangle 13006" width="15.885" height="14.777" fill="none"/>
    </clipPath>
  </defs>
  <g id="Google_play_text" transform="translate(-10.938 -9.718)">
    <path id="Path_24981" data-name="Path 24981" d="M454.346,88.2a2.415,2.415,0,0,0-1-1.048,3.012,3.012,0,0,0-1.493-.353,3.447,3.447,0,0,0-1.652.41,2.832,2.832,0,0,0-1.128,1.185,3.706,3.706,0,0,0-.41,1.766,3.752,3.752,0,0,0,.41,1.777,2.9,2.9,0,0,0,1.128,1.185,3.291,3.291,0,0,0,1.652.41,3.336,3.336,0,0,0,2.028-.695,3.055,3.055,0,0,0,.957-1.891h-3.5V89.729h5.138v1.2a4.514,4.514,0,0,1-.775,1.994,4.641,4.641,0,0,1-1.618,1.458,4.521,4.521,0,0,1-2.222.547,4.966,4.966,0,0,1-2.4-.615,4.477,4.477,0,0,1-1.72-1.7,5.021,5.021,0,0,1,0-4.9,4.507,4.507,0,0,1,1.732-1.7,4.8,4.8,0,0,1,2.393-.615,5.18,5.18,0,0,1,2.655.729A4.174,4.174,0,0,1,456.2,88.2h-1.857Z" transform="translate(-396.161 -75.67)" fill="#fff"/>
    <path id="Path_24982" data-name="Path 24982" d="M544.027,87.453v2.734h3.224v1.242h-3.224v2.86h3.623v1.242H542.5V86.2h5.15v1.242h-3.623Z" transform="translate(-480.692 -76.379)" fill="#fff"/>
    <path id="Path_24983" data-name="Path 24983" d="M606.405,86.4v1.242h-2.484V95.72H602.4V87.642h-2.5V86.4Z" transform="translate(-531.553 -76.557)" fill="#fff"/>
    <rect id="Rectangle_13003" data-name="Rectangle 13003" width="1.527" height="9.32" transform="translate(79.889 9.844)" fill="#fff"/>
    <path id="Path_24984" data-name="Path 24984" d="M734.505,86.4v1.242h-2.484V95.72H730.5V87.642H728V86.4Z" transform="translate(-645.058 -76.557)" fill="#fff"/>
    <path id="Path_24985" data-name="Path 24985" d="M827.17,94.232a4.535,4.535,0,0,1-1.732-1.709,4.831,4.831,0,0,1-.638-2.461,4.759,4.759,0,0,1,.638-2.45,4.506,4.506,0,0,1,1.732-1.7,4.982,4.982,0,0,1,4.8,0,4.477,4.477,0,0,1,1.72,1.7,5.123,5.123,0,0,1,0,4.91,4.506,4.506,0,0,1-1.72,1.709,4.982,4.982,0,0,1-4.8,0m4.045-1.139a2.892,2.892,0,0,0,1.128-1.208,3.875,3.875,0,0,0,.41-1.823,3.828,3.828,0,0,0-.41-1.812,2.936,2.936,0,0,0-1.128-1.2,3.3,3.3,0,0,0-1.652-.422,3.212,3.212,0,0,0-1.652.422,2.8,2.8,0,0,0-1.128,1.2,3.859,3.859,0,0,0-.41,1.812,3.907,3.907,0,0,0,.41,1.823,2.964,2.964,0,0,0,1.128,1.208,3.448,3.448,0,0,0,3.3,0" transform="translate(-730.83 -75.582)" fill="#fff"/>
    <path id="Path_24986" data-name="Path 24986" d="M929.256,95.631h-1.527l-4.6-6.961v6.961H921.6V86.3h1.527l4.6,6.95V86.3h1.527Z" transform="translate(-816.601 -76.469)" fill="#fff"/>
    <path id="Path_24987" data-name="Path 24987" d="M458.834,260.875a3.281,3.281,0,0,0-1.31-1.333,3.97,3.97,0,0,0-1.948-.456,4.433,4.433,0,0,0-2.187.558,3.927,3.927,0,0,0-1.492,1.584,5.13,5.13,0,0,0-.535,2.381,5.216,5.216,0,0,0,.547,2.427,3.835,3.835,0,0,0,1.515,1.584,4.432,4.432,0,0,0,2.267.558,4.319,4.319,0,0,0,2.6-.843,4.047,4.047,0,0,0,1.333-2.358h-4.762v-2.131h7.508v2.427a6.376,6.376,0,0,1-1.2,2.677,6.551,6.551,0,0,1-2.358,1.971,6.858,6.858,0,0,1-3.224.741,7.72,7.72,0,0,1-3.623-.9,6.5,6.5,0,0,1-2.541-2.518,7.209,7.209,0,0,1-.923-3.657,7.281,7.281,0,0,1,.923-3.669,6.429,6.429,0,0,1,2.541-2.518,7.249,7.249,0,0,1,3.6-.9,7.76,7.76,0,0,1,4.067,1.139,5.829,5.829,0,0,1,2.381,3.213h-3.2Z" transform="translate(-397.402 -227.277)" fill="#fff"/>
    <path id="Path_24988" data-name="Path 24988" d="M584.923,292.464a5.084,5.084,0,0,1-1.994-1.994,6.064,6.064,0,0,1-.729-2.985,5.948,5.948,0,0,1,.741-2.985,5.122,5.122,0,0,1,2.039-1.994,6.234,6.234,0,0,1,5.765,0,5.2,5.2,0,0,1,2.039,1.994,5.833,5.833,0,0,1,.741,2.985,5.734,5.734,0,0,1-.763,2.985,5.253,5.253,0,0,1-2.062,1.994,6.023,6.023,0,0,1-2.905.706,5.783,5.783,0,0,1-2.86-.706Zm4.284-2.085a2.617,2.617,0,0,0,1.06-1.105,3.74,3.74,0,0,0,.4-1.789,3.335,3.335,0,0,0-.82-2.415,2.718,2.718,0,0,0-2.017-.843,2.65,2.65,0,0,0-1.994.843,3.362,3.362,0,0,0-.809,2.415,3.425,3.425,0,0,0,.786,2.415,2.6,2.6,0,0,0,1.971.843,2.294,2.294,0,0,0,1.424-.365" transform="translate(-515.869 -249.693)" fill="#fff"/>
    <path id="Path_24989" data-name="Path 24989" d="M696.223,292.464a5.083,5.083,0,0,1-1.994-1.994,6.063,6.063,0,0,1-.729-2.985,5.948,5.948,0,0,1,.741-2.985,5.122,5.122,0,0,1,2.039-1.994,6.234,6.234,0,0,1,5.765,0,5.2,5.2,0,0,1,2.039,1.994,5.834,5.834,0,0,1,.74,2.985,5.735,5.735,0,0,1-.763,2.985A5.254,5.254,0,0,1,702,292.464a6.023,6.023,0,0,1-2.905.706,5.782,5.782,0,0,1-2.86-.706Zm4.272-2.085a2.617,2.617,0,0,0,1.06-1.105,3.739,3.739,0,0,0,.4-1.789,3.335,3.335,0,0,0-.82-2.415,2.718,2.718,0,0,0-2.017-.843,2.65,2.65,0,0,0-1.994.843,3.362,3.362,0,0,0-.809,2.415,3.425,3.425,0,0,0,.786,2.415,2.6,2.6,0,0,0,1.971.843A2.294,2.294,0,0,0,700.5,290.379Z" transform="translate(-614.489 -249.693)" fill="#fff"/>
    <path id="Path_24990" data-name="Path 24990" d="M811.689,282.113a3.815,3.815,0,0,1,1.47,1.265v-1.572h2.8v11.085a5.959,5.959,0,0,1-.615,2.734,4.563,4.563,0,0,1-1.846,1.9,5.934,5.934,0,0,1-2.985.706,7.213,7.213,0,0,1-3.84-1.094,4.054,4.054,0,0,1-1.7-2.985h2.757a2.034,2.034,0,0,0,.946,1.2,3.29,3.29,0,0,0,1.755.444,2.579,2.579,0,0,0,2.723-2.928v-1.709a4.218,4.218,0,0,1-1.481,1.287,4.425,4.425,0,0,1-2.153.513,5,5,0,0,1-2.541-.718,5.053,5.053,0,0,1-1.823-2.017,6.466,6.466,0,0,1-.661-2.985,6.37,6.37,0,0,1,.661-2.962,4.784,4.784,0,0,1,4.364-2.677,4.229,4.229,0,0,1,2.165.49Zm1.082,3.452a2.887,2.887,0,0,0-1.071-1.116,2.842,2.842,0,0,0-1.447-.387,2.874,2.874,0,0,0-1.435.376,2.832,2.832,0,0,0-1.06,1.105,3.432,3.432,0,0,0-.41,1.72,3.583,3.583,0,0,0,.41,1.743,2.878,2.878,0,0,0,1.071,1.139,2.744,2.744,0,0,0,1.424.4,2.813,2.813,0,0,0,1.447-.387,2.736,2.736,0,0,0,1.071-1.117,4.009,4.009,0,0,0,0-3.486Z" transform="translate(-712.842 -249.518)" fill="#fff"/>
    <rect id="Rectangle_13004" data-name="Rectangle 13004" width="2.78" height="14.697" transform="translate(105.842 28.598)" fill="#fff"/>
    <path id="Path_24991" data-name="Path 24991" d="M982.158,288.317h-8.044a2.752,2.752,0,0,0,.832,1.868,2.551,2.551,0,0,0,1.812.672,2.281,2.281,0,0,0,2.21-1.333h3a5.011,5.011,0,0,1-1.823,2.609,5.322,5.322,0,0,1-3.315,1.025,5.143,5.143,0,0,1-2.848-.706,5.028,5.028,0,0,1-1.971-1.994,6.732,6.732,0,0,1-.011-5.981,4.805,4.805,0,0,1,1.948-1.982,6.276,6.276,0,0,1,5.7-.023,4.792,4.792,0,0,1,1.925,1.914,5.82,5.82,0,0,1,.684,2.848c0,1.071-.023.752-.08,1.071Zm-2.8-1.868a2.21,2.21,0,0,0-.775-1.72,2.725,2.725,0,0,0-1.846-.649,2.463,2.463,0,0,0-1.743.627,2.75,2.75,0,0,0-.866,1.743Z" transform="translate(-860.639 -249.693)" fill="#fff"/>
    <path id="Path_24992" data-name="Path 24992" d="M1136.182,264.68a3.879,3.879,0,0,1-1.652,1.572,5.969,5.969,0,0,1-2.826.592h-2.324v5.321h-2.78V258.3h5.1a6.149,6.149,0,0,1,2.746.558,3.9,3.9,0,0,1,1.7,1.527,4.313,4.313,0,0,1,.57,2.21,4.05,4.05,0,0,1-.524,2.085Zm-2.894-.615a1.925,1.925,0,0,0,.558-1.481c0-1.356-.752-2.028-2.267-2.028h-2.21v4.033h2.21A2.418,2.418,0,0,0,1133.288,264.065Z" transform="translate(-998.245 -228.871)" fill="#fff"/>
    <rect id="Rectangle_13005" data-name="Rectangle 13005" width="2.78" height="14.697" transform="translate(140.432 28.598)" fill="#fff"/>
    <path id="Path_24993" data-name="Path 24993" d="M1275.461,284.577a4.784,4.784,0,0,1,4.364-2.677,4.154,4.154,0,0,1,2.153.5,4.453,4.453,0,0,1,1.481,1.253v-1.572h2.8v11.006h-2.8v-1.606a4.081,4.081,0,0,1-1.481,1.276,4.479,4.479,0,0,1-2.176.5,4.929,4.929,0,0,1-2.529-.718,5.026,5.026,0,0,1-1.811-2.017,6.465,6.465,0,0,1-.661-2.985A6.369,6.369,0,0,1,1275.461,284.577Zm7.6,1.253a2.887,2.887,0,0,0-1.071-1.117,2.842,2.842,0,0,0-1.447-.387,2.874,2.874,0,0,0-1.436.376,2.834,2.834,0,0,0-1.06,1.105,3.432,3.432,0,0,0-.41,1.72,3.583,3.583,0,0,0,.41,1.743,2.878,2.878,0,0,0,1.071,1.139,2.743,2.743,0,0,0,1.424.4,2.812,2.812,0,0,0,1.447-.387,2.737,2.737,0,0,0,1.071-1.117,4.009,4.009,0,0,0,0-3.486Z" transform="translate(-1129.561 -249.783)" fill="#fff"/>
    <path id="Path_24994" data-name="Path 24994" d="M1399.8,283.4l-6.813,16.212h-2.962l2.381-5.48L1388,283.411h3.122l2.837,7.69,2.882-7.69h2.962Z" transform="translate(-1229.863 -251.111)" fill="#fff"/>
    <path id="Path_24995" data-name="Path 24995" d="M96.832,101.3A3.562,3.562,0,0,0,96,103.613v27.218a3.61,3.61,0,0,0,.535,1.9l14.355-15.791L96.82,101.311Z" transform="translate(-85.063 -89.758)" fill="#4285f5"/>
    <path id="Path_24996" data-name="Path 24996" d="M123.91,99.649,107.88,90.4a3.609,3.609,0,0,0-4.58.809l14.071,15.631Z" transform="translate(-91.531 -79.664)" fill="#00ae45"/>
    <path id="Path_24997" data-name="Path 24997" d="M123.91,99.649,107.88,90.4a3.609,3.609,0,0,0-4.58.809l14.071,15.631Z" transform="translate(-91.531 -79.664)" fill="#00ae45"/>
    <path id="Path_24998" data-name="Path 24998" d="M105.576,255.61l16.315-9.422-6.836-7.588L100.7,254.391A3.616,3.616,0,0,0,105.576,255.61Z" transform="translate(-89.227 -211.416)" fill="#00ae45"/>
    <path id="Path_24999" data-name="Path 24999" d="M105.576,255.61l16.315-9.422-6.836-7.588L100.7,254.391A3.616,3.616,0,0,0,105.576,255.61Z" transform="translate(-89.227 -211.416)" fill="#eb4132"/>
    <path id="Path_25000" data-name="Path 25000" d="M233.536,190.277l7.246-4.181a3.6,3.6,0,0,0,0-6.243L233.24,175.5l-6.54,7.189Z" transform="translate(-200.872 -155.506)" fill="#00ae45"/>
    <g id="Group_10107" data-name="Group 10107" transform="translate(25.828 19.994)" opacity="0.5" style="isolation: isolate">
      <g id="Group_10106" data-name="Group 10106">
        <g id="Group_10105" data-name="Group 10105" clip-path="url(#clip-path)">
          <path id="Path_25001" data-name="Path 25001" d="M233.536,190.277l7.246-4.181a3.6,3.6,0,0,0,0-6.243L233.24,175.5l-6.54,7.189Z" transform="translate(-226.7 -175.5)" fill="#fff200"/>
        </g>
      </g>
    </g>
    <path id="Path_25002" data-name="Path 25002" d="M233.536,190.277l7.246-4.181a3.6,3.6,0,0,0,0-6.243L233.24,175.5l-6.54,7.189Z" transform="translate(-200.872 -155.506)" fill="#fb0"/>
  </g>
</svg>
