<?xml version="1.0" encoding="utf-8"?>
<!-- Generator: Adobe Illustrator 28.0.0, SVG Export Plug-In . SVG Version: 6.00 Build 0)  -->
<svg version="1.1" id="Layer_2_00000002379456401043136240000013836912126388293288_"
	 xmlns="http://www.w3.org/2000/svg" xmlns:xlink="http://www.w3.org/1999/xlink" x="0px" y="0px" viewBox="0 0 1190.4 229.1"
	 style="enable-background:new 0 0 1190.4 229.1;" xml:space="preserve">
<style type="text/css">
	.st0{fill:#1A1A1A;}
	.st1{fill:#FF6C08;}
</style>
<g id="Layer_1-2">
	<g>
		<g>
			<path class="st0" d="M391.2,29.6v22.3h-73.5V105h60.6v21.3h-60.6v74.5H290V29.6H391.2z"/>
			<path class="st0" d="M443.6,29.6v171.2h-27.7V29.6H443.6z"/>
			<path class="st0" d="M615.5,200.8h-27.7L504.7,74.4v126.4H477v-171h27.7l83.2,126.8V29.8h27.7V200.8z"/>
			<path class="st0" d="M785.4,160.2c-7,12.9-17.3,22.8-30.8,30s-29.6,10.7-48.4,10.7H649V29.6h57.2c18.7,0,34.9,3.5,48.4,10.6
				s23.8,16.9,30.8,29.7c7,12.8,10.6,27.8,10.6,45.1S792.4,147.3,785.4,160.2L785.4,160.2z M751.3,159.8
				c11-10.7,16.5-25.6,16.5-44.9s-5.5-34.2-16.5-44.9c-11-10.7-26.8-16-47.3-16h-27.4v121.7H704
				C724.5,175.8,740.3,170.5,751.3,159.8L751.3,159.8z"/>
			<path class="st0" d="M946.2,38.6c12.9,7.4,23,17.8,30.3,31.2c7.4,13.3,11,28.4,11,45.2s-3.7,31.9-11,45.2
				c-7.4,13.3-17.5,23.8-30.3,31.3c-12.9,7.5-27.2,11.3-43,11.3s-30.4-3.8-43.3-11.3c-12.9-7.5-23-17.9-30.4-31.3
				c-7.4-13.3-11.2-28.4-11.2-45.2s3.7-31.9,11.2-45.2S847,46,859.8,38.6c12.9-7.4,27.3-11.2,43.3-11.2S933.3,31.1,946.2,38.6z
				 M873.8,60.6c-8.6,5-15.2,12.2-20,21.6c-4.8,9.4-7.2,20.3-7.2,32.7s2.4,23.4,7.2,32.7s11.4,16.6,20,21.6c8.6,5,18.3,7.5,29.3,7.5
				c11,0,20.5-2.5,29-7.5c8.5-5,15.1-12.2,19.9-21.6c4.8-9.4,7.2-20.3,7.2-32.7s-2.4-23.4-7.2-32.7c-4.8-9.4-11.4-16.6-19.9-21.6
				c-8.5-5-18.2-7.5-29-7.5S882.3,55.6,873.8,60.6z"/>
			<path class="st0" d="M1144.2,43.9c13.9,10.7,23.3,25.1,28.1,43.4H1143c-4-10.3-10.5-18.6-19.3-24.6s-19.6-9.1-32.4-9.1
				c-10.2,0-19.3,2.5-27.3,7.5c-8,5-14.3,12.2-18.9,21.5c-4.6,9.3-6.9,20.2-6.9,32.6s2.3,23.1,6.9,32.4c4.6,9.3,10.9,16.4,18.9,21.5
				c8,5,17.1,7.5,27.3,7.5c12.8,0,23.6-3,32.4-9.1c8.8-6.1,15.2-14.2,19.3-24.4h29.3c-4.9,18.3-14.2,32.7-28.1,43.3
				c-13.9,10.6-31.4,15.9-52.4,15.9c-16.2,0-30.5-3.7-42.9-11c-12.4-7.4-22.1-17.6-28.9-30.8c-6.8-13.2-10.2-28.2-10.2-45.2
				s3.4-32,10.2-45.2c6.8-13.2,16.4-23.5,28.9-30.9c12.4-7.4,26.8-11.2,42.9-11.2C1112.8,27.9,1130.3,33.2,1144.2,43.9L1144.2,43.9z
				"/>
		</g>
		<path class="st1" d="M197.3,0H96.4C43.2,0,0,43.2,0,96.4v100.9c0,15.6,12.7,28.3,28.3,28.3l0,0c15.6,0,28.3-12.7,28.3-28.3V99.5
			c0-23.7,19.2-42.9,42.9-42.9h97.8c15.6,0,28.3-12.7,28.3-28.3l0,0C225.6,12.7,213,0,197.3,0L197.3,0z"/>
		<path class="st1" d="M119.6,93.5h40c36.5,0,66.1,29.6,66.1,66.1l0,0c0,36.5-29.6,66.1-66.1,66.1h-47.1c-10.5,0-19-8.5-19-19v-87.1
			C93.5,105.2,105.2,93.5,119.6,93.5L119.6,93.5z"/>
	</g>
</g>
</svg>
